<svg width="13" height="12" viewBox="0 0 13 12" fill="none" xmlns="http://www.w3.org/2000/svg">
<path d="M11.8663 10.8532L9.14049 8.13535C9.84134 7.33663 10.2253 6.33167 10.2253 5.28547C10.2253 2.84112 8.15094 0.852417 5.60126 0.852417C3.05158 0.852417 0.977173 2.84112 0.977173 5.28547C0.977173 7.72982 3.05158 9.71853 5.60126 9.71853C6.55844 9.71853 7.47059 9.44175 8.25045 8.91634L10.997 11.6548C11.1118 11.7691 11.2662 11.8321 11.4316 11.8321C11.5882 11.8321 11.7368 11.7749 11.8496 11.6708C12.0892 11.4497 12.0969 11.0831 11.8663 10.8532ZM5.60126 2.00887C7.48587 2.00887 9.01906 3.47871 9.01906 5.28547C9.01906 7.09223 7.48587 8.56208 5.60126 8.56208C3.71664 8.56208 2.18346 7.09223 2.18346 5.28547C2.18346 3.47871 3.71664 2.00887 5.60126 2.00887Z" fill="#B3BDC3"/>
</svg>
