<svg width="31" height="65" viewBox="0 0 31 65" fill="none" xmlns="http://www.w3.org/2000/svg">
<path d="M11.2792 16.5158C11.9811 14.7038 13.5603 13.7861 14.2621 13.5538H18.8242V26.7956H6.71716V24.8791C7.47751 24.2983 9.17366 22.8231 9.87552 21.5686C10.7528 20.0005 10.4019 18.7809 11.2792 16.5158Z" fill="#47708A"/>
<path d="M26.0174 16.5158C25.3155 14.7038 23.7364 13.7861 23.0345 13.5538H18.4724V26.7956H30.5795V24.8791C29.8191 24.2983 28.123 22.8231 27.4211 21.5686C26.5438 20.0005 26.8947 18.7809 26.0174 16.5158Z" fill="#47708A"/>
<path d="M14.9639 12.5086H22.1579V10.2435L20.4033 8.67542H16.7185L14.9639 10.2435V12.5086Z" fill="#47708A"/>
<path d="M30.0542 60.9455C30.0542 62.7738 24.7122 64.2559 18.1226 64.2559C11.533 64.2559 6.19104 62.7738 6.19104 60.9455C6.19104 59.1171 11.533 56.0669 18.1226 56.0669C24.7122 56.0669 30.0542 59.1171 30.0542 60.9455Z" fill="#47708A"/>
<path d="M18.2974 7.97832C18.2974 6.41017 18.2974 1.88009 13.5587 1.88013C9.15809 1.88016 3.38167 7.10715 2.15342 16.8643C0.925167 26.6214 4.29679 32.7196 8.99802 36.3785C13.6993 40.0374 15.4875 39.5147 17.4176 42.8252C18.9617 45.4735 18.4729 55.4862 18.2974 58.8547L16.8937 61.8167" stroke="#47708A" stroke-width="2"/>
<rect x="16.0162" y="46.484" width="4.56207" height="11.151" fill="#47708A"/>
</svg>
