<svg width="21" height="23" viewBox="0 0 21 23" fill="none" xmlns="http://www.w3.org/2000/svg">
<path d="M18.376 3.26788C16.7134 1.64927 14.0253 0.864986 10.3852 0.935657C6.71476 1.00734 4.26126 1.64706 2.66392 2.94895C1.1195 4.20759 0.400208 6.04935 0.400208 8.74505V11.4962C0.400208 14.6786 2.11755 18.1773 5.39979 18.7067C5.77871 18.7683 6.13567 18.5124 6.1972 18.1361C6.25873 17.7599 6.00149 17.4054 5.62256 17.3443C3.13338 16.9428 1.79024 14.0316 1.79024 11.4962V8.74505C1.79024 4.87969 3.23263 2.45582 10.4124 2.31558C13.6674 2.25153 16.0168 2.90404 17.4027 4.25341C18.4828 5.3051 19.0078 6.77428 19.0078 8.74505V11.4962C19.0078 15.6623 17.1247 17.4999 12.2948 18.0409H8.86996C8.68564 18.0409 8.50883 18.1136 8.37854 18.2431L5.96534 20.6394C5.69392 20.9089 5.69392 21.3459 5.96534 21.6154C6.10101 21.7501 6.27894 21.8176 6.45677 21.8176C6.6346 21.8176 6.81252 21.7502 6.94819 21.6154L9.15788 19.4212H12.3336C12.3592 19.4212 12.3849 19.4198 12.4104 19.417C15.1745 19.1121 17.0674 18.3978 18.367 17.1688C19.7336 15.8765 20.398 14.021 20.398 11.4962V8.74505C20.398 6.41706 19.7177 4.57428 18.376 3.26788Z" fill="#C6A464" stroke="#C6A464" stroke-width="0.5"/>
<path d="M10.8328 5.43916C10.8329 5.43916 10.8329 5.43916 10.8331 5.43916C11.953 5.43916 13.0059 5.87229 13.7978 6.65869C14.5899 7.44518 15.0261 8.49088 15.026 9.60312C15.026 9.98426 15.3371 10.2933 15.7209 10.2933C15.721 10.2933 15.721 10.2933 15.721 10.2933C16.1048 10.2933 16.416 9.98435 16.416 9.60321C16.4161 8.12225 15.8353 6.72991 14.7808 5.68273C13.7263 4.63555 12.3244 4.05896 10.8331 4.05896C10.833 4.05896 10.8327 4.05896 10.8326 4.05896C10.4488 4.05896 10.1377 4.36796 10.1377 4.7491C10.1378 5.13016 10.449 5.43916 10.8328 5.43916Z" fill="#C6A464" stroke="#C6A464" stroke-width="0.5"/>
<path d="M10.8326 7.86601C11.7971 7.86619 12.5819 8.64541 12.582 9.60305C12.5821 9.9842 12.8932 10.2932 13.2771 10.2931C13.6611 10.2931 13.9721 9.98401 13.9721 9.60287C13.9718 7.88432 12.5636 6.48599 10.8328 6.48572H10.8327C10.4489 6.48572 10.1378 6.79463 10.1377 7.17577C10.1377 7.55691 10.4488 7.86601 10.8326 7.86601Z" fill="#C6A464" stroke="#C6A464" stroke-width="0.5"/>
<path d="M7.71621 9.04836C7.39938 9.2635 7.31811 9.69296 7.53467 10.0076C7.75124 10.3222 8.18382 10.4028 8.50065 10.1877C8.74984 10.0186 9.33347 9.62238 9.29251 8.83027C9.26656 8.35619 8.83593 7.6793 8.47925 7.19491C7.95752 6.48618 7.50789 6.0593 7.14565 5.92698C6.80741 5.80192 6.45369 5.79925 6.09358 5.91925C5.34769 6.1688 4.80613 6.61979 4.52757 7.22343C4.25633 7.81107 4.26235 8.4864 4.54508 9.17682C5.21285 10.8035 6.1477 12.2277 7.32988 13.4159C8.52021 14.5835 9.95435 15.5118 11.5932 16.1753C11.9478 16.3185 12.2987 16.3902 12.6359 16.3902C12.9593 16.3902 13.2702 16.3243 13.5599 16.1925C14.1678 15.9158 14.6219 15.3781 14.8735 14.6365C14.994 14.2797 14.9913 13.9287 14.8664 13.5951C14.7322 13.2328 14.3022 12.7865 13.5885 12.2684C13.1006 11.9142 12.419 11.4866 11.9397 11.4607C11.1437 11.421 10.745 11.9995 10.5747 12.2469C10.358 12.5616 10.4391 12.991 10.7559 13.2062C11.0729 13.4215 11.5053 13.3409 11.722 13.0263C11.7976 12.9165 11.8408 12.8666 11.8656 12.8448C12.2557 12.9689 13.3682 13.7805 13.5684 14.0916C13.5733 14.1114 13.5745 14.1417 13.5559 14.1968C13.4683 14.4553 13.2973 14.7937 12.9808 14.9378C12.6844 15.0725 12.3475 14.9899 12.1175 14.897C10.649 14.3025 9.36692 13.4738 8.31272 12.4398C7.26547 11.3872 6.43099 10.1141 5.83262 8.65645C5.73884 8.42751 5.65553 8.09283 5.79129 7.79874C5.93632 7.48449 6.27716 7.31463 6.53663 7.22776C6.59205 7.20936 6.62253 7.21037 6.64366 7.21543C6.95698 7.41465 7.77385 8.5187 7.89896 8.90619C7.8769 8.93039 7.82677 8.97336 7.71621 9.04836Z" fill="#C6A464" stroke="#C6A464" stroke-width="0.5"/>
</svg>
