<svg width="23" height="22" viewBox="0 0 23 22" fill="none" xmlns="http://www.w3.org/2000/svg">
<path d="M18.4791 21.0888C18.3018 21.0888 18.1257 21.0367 17.9747 20.935L12.2683 17.0914L9.20776 19.2782C8.96772 19.4496 8.65833 19.4928 8.37961 19.3938C8.10125 19.2946 7.88984 19.0656 7.81438 18.7817L6.27763 12.9987L0.786639 10.9138C0.440959 10.7825 0.211704 10.4541 0.209188 10.0866C0.206673 9.71911 0.431377 9.38763 0.775379 9.25168L21.6541 1.00212C21.7489 0.962154 21.8491 0.93908 21.9502 0.932895C21.9864 0.930754 22.0227 0.930754 22.0587 0.932776C22.2681 0.945146 22.4738 1.02983 22.6343 1.18612C22.6509 1.20229 22.6667 1.21882 22.6817 1.23607C22.8147 1.38688 22.8877 1.57076 22.9015 1.75809C22.9049 1.80519 22.9046 1.85288 22.9004 1.90058C22.8976 1.93459 22.8926 1.96849 22.8857 2.00215L19.3615 20.3637C19.3048 20.6587 19.1026 20.9056 18.8233 21.0206C18.7125 21.0663 18.5955 21.0888 18.4791 21.0888ZM12.7694 15.2731L17.8524 18.6967L20.5946 4.40935L10.6905 13.8728L12.7454 15.257C12.7537 15.2621 12.7616 15.2676 12.7694 15.2731ZM8.53796 14.5117L9.21854 17.0725L10.6849 16.0247L8.76482 14.7314C8.67558 14.6715 8.59916 14.5968 8.53796 14.5117ZM3.57926 10.0639L7.34964 11.4953C7.61974 11.5979 7.8236 11.8234 7.89738 12.101L8.37554 13.9004C8.39746 13.6928 8.4922 13.4975 8.64612 13.3504L18.0833 4.33322L3.57926 10.0639Z" fill="#C6A464"/>
</svg>
