<svg width="22" height="22" viewBox="0 0 22 22" fill="none" xmlns="http://www.w3.org/2000/svg">
<path d="M11.0248 0.85791C5.50906 0.85791 1.02185 5.31385 1.02185 10.7908C1.02185 12.9344 1.89803 14.8591 2.27483 15.5872C2.45025 15.9262 2.86939 16.0597 3.21069 15.8856C3.55208 15.7114 3.68664 15.2953 3.51122 14.9563C3.18076 14.3176 2.41198 12.6331 2.41198 10.7907C2.41188 6.07494 6.27562 2.2382 11.0248 2.2382C15.7745 2.2382 19.6385 6.07494 19.6385 10.7908C19.6385 15.5069 15.7745 19.3437 11.0248 19.3437C9.16735 19.3437 7.69142 18.705 7.143 18.4304C6.98037 18.3488 6.79197 18.3341 6.6185 18.3892L2.24063 19.7784C1.87505 19.8945 1.67331 20.2828 1.79017 20.6459C1.88451 20.9392 2.15788 21.1262 2.45201 21.1262C2.52216 21.1262 2.59342 21.1156 2.66376 21.0932L6.77742 19.7878C7.63804 20.1845 9.1528 20.7239 11.0248 20.7239C16.5408 20.7239 21.0285 16.268 21.0285 10.7908C21.0285 5.31385 16.5408 0.85791 11.0248 0.85791Z" fill="#C6A464" stroke="#C6A464" stroke-width="0.5"/>
</svg>
